<svg version="1.1" xmlns="http://www.w3.org/2000/svg" viewBox="0 0 855.89453125 440.54296875" width="1711.7890625" height="881.0859375" filter="invert(93%) hue-rotate(180deg)">
  <!-- svg-source:excalidraw -->
  
  <defs>
    <style class="style-fonts">
      @font-face {
        font-family: "Virgil";
        src: url("https://excalidraw.com/Virgil.woff2");
      }
      @font-face {
        font-family: "Cascadia";
        src: url("https://excalidraw.com/Cascadia.woff2");
      }
      @font-face {
        font-family: "Assistant";
        src: url("https://excalidraw.com/Assistant-Regular.woff2");
      }
    </style>
    
  </defs>
  <rect x="0" y="0" width="855.89453125" height="440.54296875" fill="#f8f9fa"></rect><g stroke-linecap="round" transform="translate(10 10) rotate(0 353.4140625 210.271484375)"><path d="M32 0 C227.43 2.93, 423.51 2.93, 674.83 0 M32 0 C266.62 -1.58, 501.14 -1.9, 674.83 0 M674.83 0 C694.6 0.21, 708.09 9.02, 706.83 32 M674.83 0 C694.15 1.8, 707.11 11.35, 706.83 32 M706.83 32 C706.23 127.69, 705.62 221.28, 706.83 388.54 M706.83 32 C705.97 112.04, 705.61 190.87, 706.83 388.54 M706.83 388.54 C705.37 410.95, 697.35 420.45, 674.83 420.54 M706.83 388.54 C707.56 411.35, 697.27 419.69, 674.83 420.54 M674.83 420.54 C502.08 422.47, 329.78 423.17, 32 420.54 M674.83 420.54 C436.98 422.48, 198.16 422.72, 32 420.54 M32 420.54 C9.42 418.69, -1.55 408.44, 0 388.54 M32 420.54 C11.22 420.86, 0.93 409.91, 0 388.54 M0 388.54 C-0.18 274.47, 0.41 160.16, 0 32 M0 388.54 C-1.21 286.86, -2.15 186.34, 0 32 M0 32 C-1.96 10.75, 11.13 -1.42, 32 0 M0 32 C-1.67 10.12, 9.26 1.97, 32 0" stroke="#1e1e1e" stroke-width="1" fill="none"></path></g><g transform="translate(29.1171875 25.98828125) rotate(0 98.34992218017578 12.5)"><text x="0" y="0" font-family="Virgil, Segoe UI Emoji" font-size="20px" fill="#1e1e1e" text-anchor="start" style="white-space: pre;" direction="ltr" dominant-baseline="text-before-edge">REGION (us-east-1)</text></g><g stroke-linecap="round" transform="translate(23.203125 65.87890625) rotate(0 333.013671875 175.953125)"><path d="M32 0 C225.63 1.11, 420.15 2.09, 634.03 0 M32 0 C261.32 -0.18, 490.96 0.26, 634.03 0 M634.03 0 C654.56 -1.51, 666.73 9.33, 666.03 32 M634.03 0 C656.69 1.95, 665.82 10.39, 666.03 32 M666.03 32 C664.46 110.76, 665.93 189.98, 666.03 319.91 M666.03 32 C667.22 121.86, 667.63 211.21, 666.03 319.91 M666.03 319.91 C667.27 340.98, 653.43 352.36, 634.03 351.91 M666.03 319.91 C667.12 343.14, 654.39 349.69, 634.03 351.91 M634.03 351.91 C413.5 350.36, 193.78 351.23, 32 351.91 M634.03 351.91 C470.71 350.44, 306.97 350.54, 32 351.91 M32 351.91 C10.53 351.92, -0.28 339.79, 0 319.91 M32 351.91 C10.56 352.16, -1.94 343.2, 0 319.91 M0 319.91 C3.06 232.67, 0.91 143.47, 0 32 M0 319.91 C-0.8 260.33, -1.71 199.45, 0 32 M0 32 C-0.82 9.1, 11.68 0.92, 32 0 M0 32 C1.69 9.91, 12.64 -0.37, 32 0" stroke="#e03131" stroke-width="1" fill="none"></path></g><g transform="translate(42.9296875 84.859375) rotate(0 23.219985961914062 12.5)"><text x="0" y="0" font-family="Virgil, Segoe UI Emoji" font-size="20px" fill="#e03131" text-anchor="start" style="white-space: pre;" direction="ltr" dominant-baseline="text-before-edge">VPC </text></g><g stroke-linecap="round" transform="translate(38.828125 117.1328125) rotate(0 145.37695312499997 70.6953125)"><path d="M32 0 C105.54 -0.38, 180.41 1.47, 258.75 0 M32 0 C113.01 1.87, 194 1.64, 258.75 0 M258.75 0 C281.25 -0.76, 290.18 11.04, 290.75 32 M258.75 0 C279.26 -1.51, 291.89 12.84, 290.75 32 M290.75 32 C289.39 59.6, 290.99 85.35, 290.75 109.39 M290.75 32 C291.33 61.13, 291.2 91.33, 290.75 109.39 M290.75 109.39 C289.53 128.86, 281.32 141.33, 258.75 141.39 M290.75 109.39 C292.61 131.11, 280.92 140.15, 258.75 141.39 M258.75 141.39 C173.28 140.99, 85.44 140.79, 32 141.39 M258.75 141.39 C209.02 141.89, 160.23 141.9, 32 141.39 M32 141.39 C12.21 142.53, 1.06 130.64, 0 109.39 M32 141.39 C12.77 139.68, 0.69 129.58, 0 109.39 M0 109.39 C-2.04 92.81, -0.32 73.61, 0 32 M0 109.39 C0.39 82.31, -1.3 55.33, 0 32 M0 32 C1.78 12.08, 8.71 -0.41, 32 0 M0 32 C-1.1 10.03, 11.62 0.25, 32 0" stroke="#2f9e44" stroke-width="1" fill="none"></path></g><g stroke-linecap="round" transform="translate(33.064453125 275.154296875) rotate(0 151.39062499999997 62.87890625)"><path d="M31.44 0 C88.24 -1.44, 143.79 -0.35, 271.34 0 M31.44 0 C128.06 1.02, 223.42 -0.34, 271.34 0 M271.34 0 C293.19 -1.07, 303.12 12.06, 302.78 31.44 M271.34 0 C293.15 -0.55, 302.75 10.22, 302.78 31.44 M302.78 31.44 C305.08 50.72, 302.68 64.69, 302.78 94.32 M302.78 31.44 C301.72 49.04, 302.68 66.81, 302.78 94.32 M302.78 94.32 C303.03 114.88, 294.16 125.79, 271.34 125.76 M302.78 94.32 C301.89 114.69, 294.16 125.96, 271.34 125.76 M271.34 125.76 C177.2 127.04, 82.97 126.76, 31.44 125.76 M271.34 125.76 C186.88 124.91, 103 125.16, 31.44 125.76 M31.44 125.76 C8.56 125.62, 1.95 116.16, 0 94.32 M31.44 125.76 C8.96 126.41, -0.53 114.9, 0 94.32 M0 94.32 C-0.76 78.09, -0.03 61.9, 0 31.44 M0 94.32 C0.76 70.89, -0.08 47.14, 0 31.44 M0 31.44 C-1.21 12.3, 9.11 -1.27, 31.44 0 M0 31.44 C-0.45 9.28, 12.33 1.36, 31.44 0" stroke="#2f9e44" stroke-width="1" fill="none"></path></g><g transform="translate(51.8828125 123.32421875) rotate(0 85.60995483398438 12.5)"><text x="0" y="0" font-family="Virgil, Segoe UI Emoji" font-size="20px" fill="#2f9e44" text-anchor="start" style="white-space: pre;" direction="ltr" dominant-baseline="text-before-edge">PUBLIC SUBNET</text></g><g transform="translate(49.375 370.80078125) rotate(0 92.05995178222656 12.5)"><text x="0" y="0" font-family="Virgil, Segoe UI Emoji" font-size="20px" fill="#2f9e44" text-anchor="start" style="white-space: pre;" direction="ltr" dominant-baseline="text-before-edge">PRIVATE SUBNET</text></g><g stroke-linecap="round" transform="translate(227.2890625 179.1328125) rotate(0 26.755859375 24.259765625)"><path d="M12.13 0 C24.85 -1.37, 33.2 -1.65, 41.38 0 M12.13 0 C20.86 -0.75, 30.77 0.84, 41.38 0 M41.38 0 C51.23 -1.79, 54.66 2.31, 53.51 12.13 M41.38 0 C50.44 -0.2, 51.75 5.06, 53.51 12.13 M53.51 12.13 C52.09 17.38, 52.93 25.42, 53.51 36.39 M53.51 12.13 C52.92 18.71, 52.71 25.87, 53.51 36.39 M53.51 36.39 C54.86 46.3, 50.49 48.91, 41.38 48.52 M53.51 36.39 C53.45 46.55, 49.69 46.31, 41.38 48.52 M41.38 48.52 C29.84 49.32, 19.41 49.69, 12.13 48.52 M41.38 48.52 C34.28 48.21, 27.82 49.12, 12.13 48.52 M12.13 48.52 C3 49.26, 1.82 42.75, 0 36.39 M12.13 48.52 C4.63 47.57, 1.06 44.56, 0 36.39 M0 36.39 C0.27 26.2, -0.24 20.46, 0 12.13 M0 36.39 C-0.68 31.13, -0.37 24.11, 0 12.13 M0 12.13 C1.76 3.38, 2.44 -0.48, 12.13 0 M0 12.13 C-2.02 3.6, 2.14 -0.53, 12.13 0" stroke="#f08c00" stroke-width="1" fill="none"></path></g><g transform="translate(240.0749282836914 190.892578125) rotate(0 13.969993591308594 12.5)"><text x="13.969993591308594" y="0" font-family="Virgil, Segoe UI Emoji" font-size="20px" fill="#f08c00" text-anchor="middle" style="white-space: pre;" direction="ltr" dominant-baseline="text-before-edge">SG</text></g><g stroke-linecap="round" transform="translate(239.427734375 309.822265625) rotate(0 26.755859375 24.259765625)"><path d="M12.13 0 C19.18 1.43, 26.1 2, 41.38 0 M12.13 0 C20.68 -0.9, 30.25 -0.13, 41.38 0 M41.38 0 C49.06 -1.63, 53.53 5.33, 53.51 12.13 M41.38 0 C51.62 -1.93, 55.25 5.03, 53.51 12.13 M53.51 12.13 C54.91 17.46, 52.18 26.44, 53.51 36.39 M53.51 12.13 C53.55 20.14, 52.47 27.57, 53.51 36.39 M53.51 36.39 C54.75 46.03, 48.77 49.55, 41.38 48.52 M53.51 36.39 C52.09 45.42, 47.3 49.38, 41.38 48.52 M41.38 48.52 C33.44 47.41, 23.6 48.97, 12.13 48.52 M41.38 48.52 C32.7 48.08, 25.28 48.55, 12.13 48.52 M12.13 48.52 C5.44 49.05, 1.26 43.68, 0 36.39 M12.13 48.52 C2.93 46.26, 2.27 45.23, 0 36.39 M0 36.39 C-1.44 26.57, -1.29 21.37, 0 12.13 M0 36.39 C0.46 28.01, 0.69 18.34, 0 12.13 M0 12.13 C0.84 3.74, 5.05 -0.07, 12.13 0 M0 12.13 C1.18 2.81, 3.49 -0.56, 12.13 0" stroke="#f08c00" stroke-width="1" fill="none"></path></g><g transform="translate(252.2136001586914 321.58203125) rotate(0 13.969993591308594 12.5)"><text x="13.969993591308594" y="0" font-family="Virgil, Segoe UI Emoji" font-size="20px" fill="#f08c00" text-anchor="middle" style="white-space: pre;" direction="ltr" dominant-baseline="text-before-edge">SG</text></g><g stroke-linecap="round" transform="translate(345.541015625 111.89453125) rotate(0 32.74609375 70.6953125)"><path d="M16.37 0 C28.11 -1.06, 39.12 -1.3, 49.12 0 M16.37 0 C27.27 -0.68, 39.09 -0.41, 49.12 0 M49.12 0 C60.97 -0.22, 64.62 4.27, 65.49 16.37 M49.12 0 C61.01 -1.86, 67.06 3.29, 65.49 16.37 M65.49 16.37 C65.63 47.1, 68.02 76.66, 65.49 125.02 M65.49 16.37 C66.33 43.67, 67.03 69.55, 65.49 125.02 M65.49 125.02 C64.82 135.49, 59.73 141.67, 49.12 141.39 M65.49 125.02 C67.26 136.11, 59.44 143.66, 49.12 141.39 M49.12 141.39 C39.83 140, 28.75 141.3, 16.37 141.39 M49.12 141.39 C40.67 141.96, 32.28 142.13, 16.37 141.39 M16.37 141.39 C5.81 141.44, 1.39 136.84, 0 125.02 M16.37 141.39 C5.6 140.72, 1.37 137.02, 0 125.02 M0 125.02 C-1.11 90.38, 0.61 53.31, 0 16.37 M0 125.02 C-0.07 86.02, 0.17 48.03, 0 16.37 M0 16.37 C-1.44 4.72, 5.81 -0.83, 16.37 0 M0 16.37 C-0.89 5.75, 5.99 2.08, 16.37 0" stroke="#2f9e44" stroke-width="1" fill="none"></path></g><g transform="translate(359.297119140625 170.08984375) rotate(0 18.989990234375 12.5)"><text x="18.989990234375" y="0" font-family="Virgil, Segoe UI Emoji" font-size="20px" fill="#f08c00" text-anchor="middle" style="white-space: pre;" direction="ltr" dominant-baseline="text-before-edge">ACL</text></g><g stroke-linecap="round" transform="translate(347.25390625 266.8359375) rotate(0 32.74609375 70.6953125)"><path d="M16.37 0 C24.08 -2.04, 30.11 0.99, 49.12 0 M16.37 0 C28.63 -0.23, 42.72 -0.33, 49.12 0 M49.12 0 C59.55 1.4, 67.45 3.64, 65.49 16.37 M49.12 0 C58.65 -1.88, 65.69 4.88, 65.49 16.37 M65.49 16.37 C65.04 44.92, 64.95 73.12, 65.49 125.02 M65.49 16.37 C65.79 49.9, 65.32 82.32, 65.49 125.02 M65.49 125.02 C66.62 136.86, 61.26 142.96, 49.12 141.39 M65.49 125.02 C64.49 137.89, 61.73 140.16, 49.12 141.39 M49.12 141.39 C37.82 140.16, 23.09 142.91, 16.37 141.39 M49.12 141.39 C38.88 140.9, 27.18 141.1, 16.37 141.39 M16.37 141.39 C7.28 139.9, 0.06 137.74, 0 125.02 M16.37 141.39 C3.34 139.3, 2.18 136.72, 0 125.02 M0 125.02 C0.56 93.35, 0.83 63.47, 0 16.37 M0 125.02 C-0.3 85.73, 0.6 46.9, 0 16.37 M0 16.37 C-1.35 6.58, 6.67 0.16, 16.37 0 M0 16.37 C1.44 6.08, 3.49 -2.18, 16.37 0" stroke="#2f9e44" stroke-width="1" fill="none"></path></g><g transform="translate(361.010009765625 325.03125) rotate(0 18.989990234375 12.5)"><text x="18.989990234375" y="0" font-family="Virgil, Segoe UI Emoji" font-size="20px" fill="#f08c00" text-anchor="middle" style="white-space: pre;" direction="ltr" dominant-baseline="text-before-edge">ACL</text></g><g stroke-linecap="round" transform="translate(430.375 110.5625) rotate(0 39.708984375 70.6953125)"><path d="M19.85 0 C30.17 0.52, 38.79 0.73, 59.56 0 M19.85 0 C28.18 0, 36.83 -0.67, 59.56 0 M59.56 0 C72.47 -1.32, 77.92 8.33, 79.42 19.85 M59.56 0 C72.46 1.09, 78.5 4.77, 79.42 19.85 M79.42 19.85 C78.99 49.49, 81.23 82.25, 79.42 121.54 M79.42 19.85 C80.24 42.68, 78.92 67.14, 79.42 121.54 M79.42 121.54 C79.94 133.68, 73.48 141.39, 59.56 141.39 M79.42 121.54 C78.94 137.05, 72.9 139.49, 59.56 141.39 M59.56 141.39 C50.03 140.27, 42.72 139.65, 19.85 141.39 M59.56 141.39 C43.31 141.73, 28.96 140.82, 19.85 141.39 M19.85 141.39 C8.25 141.45, -0.84 133.55, 0 121.54 M19.85 141.39 C7.71 139.93, 0.18 134.25, 0 121.54 M0 121.54 C0.39 84.78, 1.28 45.77, 0 19.85 M0 121.54 C0.43 92.59, -0.21 64.05, 0 19.85 M0 19.85 C-0.77 6.84, 6.99 0.85, 19.85 0 M0 19.85 C1.8 6.16, 8.5 1, 19.85 0" stroke="#2f9e44" stroke-width="1" fill="none"></path></g><g transform="translate(435.9640121459961 156.2578125) rotate(0 34.119972229003906 25)"><text x="34.119972229003906" y="0" font-family="Virgil, Segoe UI Emoji" font-size="20px" fill="#f08c00" text-anchor="middle" style="white-space: pre;" direction="ltr" dominant-baseline="text-before-edge">Route </text><text x="34.119972229003906" y="25" font-family="Virgil, Segoe UI Emoji" font-size="20px" fill="#f08c00" text-anchor="middle" style="white-space: pre;" direction="ltr" dominant-baseline="text-before-edge">Table</text></g><g stroke-linecap="round" transform="translate(435.400390625 262.05078125) rotate(0 39.708984375 70.6953125)"><path d="M19.85 0 C33.06 -1.43, 48.03 -1.81, 59.56 0 M19.85 0 C27.65 -0.15, 38.11 -0.03, 59.56 0 M59.56 0 C73.66 0.92, 79.4 5.03, 79.42 19.85 M59.56 0 C70.63 -2.25, 78.99 6.21, 79.42 19.85 M79.42 19.85 C79.55 55.28, 80.43 85.02, 79.42 121.54 M79.42 19.85 C78.66 46.85, 78.8 74.5, 79.42 121.54 M79.42 121.54 C78.71 134.65, 72.08 142.57, 59.56 141.39 M79.42 121.54 C80.14 133.32, 71.41 143.41, 59.56 141.39 M59.56 141.39 C49.75 143.1, 39.6 142.68, 19.85 141.39 M59.56 141.39 C45.02 142.06, 29.82 141.28, 19.85 141.39 M19.85 141.39 C5.79 141, 0.88 134.02, 0 121.54 M19.85 141.39 C7.58 143.2, 1.06 134.52, 0 121.54 M0 121.54 C-1.05 98.31, -0.02 70.71, 0 19.85 M0 121.54 C-0.72 91.41, -1.3 60.81, 0 19.85 M0 19.85 C1.47 7.95, 5.72 1.47, 19.85 0 M0 19.85 C-0.55 6.46, 4.79 0.41, 19.85 0" stroke="#2f9e44" stroke-width="1" fill="none"></path></g><g transform="translate(440.9894027709961 307.74609375) rotate(0 34.119972229003906 25)"><text x="34.119972229003906" y="0" font-family="Virgil, Segoe UI Emoji" font-size="20px" fill="#f08c00" text-anchor="middle" style="white-space: pre;" direction="ltr" dominant-baseline="text-before-edge">Route </text><text x="34.119972229003906" y="25" font-family="Virgil, Segoe UI Emoji" font-size="20px" fill="#f08c00" text-anchor="middle" style="white-space: pre;" direction="ltr" dominant-baseline="text-before-edge">Table</text></g><g stroke-linecap="round" transform="translate(528.9375 205.8515625) rotate(0 54.70703125 42.5)"><path d="M48.11 0.38 C56.51 -1.03, 66.75 1.3, 75.18 4.08 C83.61 6.86, 92.96 11.44, 98.7 17.04 C104.45 22.64, 108.54 30.82, 109.65 37.66 C110.76 44.5, 108.95 51.55, 105.37 58.09 C101.79 64.62, 95.6 72.26, 88.19 76.85 C80.78 81.45, 70.05 84.84, 60.93 85.65 C51.81 86.47, 41.85 84.74, 33.48 81.76 C25.11 78.79, 16.24 73.65, 10.71 67.82 C5.18 62, 1.26 53.74, 0.29 46.81 C-0.68 39.88, 1.4 32.72, 4.89 26.25 C8.38 19.77, 13.21 12.44, 21.22 7.95 C29.24 3.46, 46.98 0.59, 52.99 -0.67 C59 -1.93, 57.21 -0.54, 57.29 0.4 M58.67 -0.23 C67.1 -0.36, 77.2 2.16, 84.62 6.34 C92.03 10.53, 99.05 18.25, 103.15 24.88 C107.25 31.51, 109.88 39.34, 109.23 46.12 C108.57 52.9, 104.24 59.62, 99.22 65.57 C94.19 71.52, 87.21 78.46, 79.08 81.81 C70.95 85.16, 59.82 86.14, 50.45 85.68 C41.09 85.22, 30.53 83.36, 22.9 79.03 C15.27 74.71, 8.55 66.43, 4.67 59.74 C0.79 53.05, -1.37 45.8, -0.39 38.89 C0.59 31.99, 5.19 24.17, 10.55 18.3 C15.92 12.43, 23.97 6.75, 31.8 3.68 C39.63 0.61, 53.1 0.48, 57.52 -0.13 C61.95 -0.73, 58.18 -0.59, 58.34 0.06" stroke="#f08c00" stroke-width="1" fill="none"></path></g><g transform="translate(550.0408508231734 235.79952429957171) rotate(0 33.41996765136719 12.5)"><text x="33.41996765136719" y="0" font-family="Virgil, Segoe UI Emoji" font-size="20px" fill="#f08c00" text-anchor="middle" style="white-space: pre;" direction="ltr" dominant-baseline="text-before-edge">Router</text></g><g stroke-linecap="round"><g transform="translate(593.6192308314282 205.12919565210854) rotate(0 -38.45024041571412 -24.668113451054268)"><path d="M0.12 -0.05 C-4.83 -7.36, -17.22 -35.55, -30.03 -43.69 C-42.84 -51.83, -69.1 -47.8, -76.73 -48.88 M-1.27 -1.12 C-6.3 -8.27, -17.97 -33.97, -30.65 -42.28 C-43.34 -50.59, -69.41 -49.78, -77.4 -50.98" stroke="#f08c00" stroke-width="1" fill="none"></path></g><g transform="translate(593.6192308314282 205.12919565210854) rotate(0 -38.45024041571412 -24.668113451054268)"><path d="M-54.96 -57.3 C-61.18 -54.52, -67.65 -53.52, -77.4 -50.98 M-54.96 -57.3 C-61.7 -54.42, -69.31 -53.27, -77.4 -50.98" stroke="#f08c00" stroke-width="1" fill="none"></path></g><g transform="translate(593.6192308314282 205.12919565210854) rotate(0 -38.45024041571412 -24.668113451054268)"><path d="M-56.15 -41.39 C-62.07 -42.97, -68.21 -46.33, -77.4 -50.98 M-56.15 -41.39 C-62.63 -43.89, -69.84 -48.12, -77.4 -50.98" stroke="#f08c00" stroke-width="1" fill="none"></path></g></g><mask></mask><g stroke-linecap="round"><g transform="translate(572.32421875 293.484375) rotate(0 -23.546875 27.314453125)"><path d="M-0.56 0.92 C-0.86 9.78, 6.35 44.04, -1.49 53.03 C-9.33 62.01, -40.05 54.51, -47.58 54.84 M1.35 0.36 C0.94 8.89, 6.35 42, -1.97 51.31 C-10.3 60.63, -41.22 55.44, -48.6 56.27" stroke="#f08c00" stroke-width="1" fill="none"></path></g><g transform="translate(572.32421875 293.484375) rotate(0 -23.546875 27.314453125)"><path d="M-27.35 49.2 C-32.75 52.88, -39.91 52.9, -48.6 56.27 M-27.35 49.2 C-34.52 50.98, -40.93 54.68, -48.6 56.27" stroke="#f08c00" stroke-width="1" fill="none"></path></g><g transform="translate(572.32421875 293.484375) rotate(0 -23.546875 27.314453125)"><path d="M-27.78 64.51 C-33.02 63.2, -40.04 58.23, -48.6 56.27 M-27.78 64.51 C-34.87 61.43, -41.14 60.27, -48.6 56.27" stroke="#f08c00" stroke-width="1" fill="none"></path></g></g><mask></mask><g stroke-linecap="round" transform="translate(685.84375 120.796875) rotate(0 80.025390625 42.5)"><path d="M59.02 1.56 C70 -0.6, 83.95 0.55, 96.11 1.81 C108.26 3.06, 122.2 5, 131.93 9.09 C141.66 13.18, 149.67 20.01, 154.46 26.36 C159.25 32.7, 161.93 40.5, 160.68 47.17 C159.44 53.84, 153.99 61.08, 146.99 66.36 C139.99 71.65, 129.43 75.84, 118.68 78.9 C107.92 81.96, 94.87 84.32, 82.45 84.72 C70.04 85.11, 55.24 84.11, 44.2 81.25 C33.16 78.39, 23.51 72.79, 16.21 67.56 C8.91 62.33, 2.45 56.34, 0.41 49.89 C-1.62 43.43, -0.24 35.12, 4 28.82 C8.25 22.53, 16.15 16.78, 25.87 12.11 C35.58 7.44, 55.24 2.56, 62.3 0.81 C69.36 -0.93, 67.73 0.87, 68.24 1.63 M108.86 4.11 C120.13 5.7, 130.62 10.82, 138.86 15.37 C147.11 19.93, 155.06 25.06, 158.33 31.44 C161.59 37.82, 161.64 47.16, 158.47 53.65 C155.29 60.14, 147.48 65.84, 139.28 70.37 C131.07 74.9, 120.43 78.25, 109.25 80.84 C98.06 83.43, 84.67 86.31, 72.16 85.9 C59.64 85.49, 44.44 82.2, 34.16 78.39 C23.88 74.57, 16.3 68.95, 10.5 63.03 C4.69 57.12, -0.61 49.51, -0.67 42.9 C-0.74 36.29, 4.53 29.37, 10.12 23.36 C15.71 17.35, 22.68 10.8, 32.87 6.83 C43.06 2.86, 58.79 0.09, 71.29 -0.48 C83.78 -1.05, 102.03 2.66, 107.84 3.41 C113.64 4.16, 106.4 3.56, 106.13 4.01" stroke="#1971c2" stroke-width="1" fill="none"></path></g><g transform="translate(719.4526805628781 138.24483679957171) rotate(0 46.32996368408203 25)"><text x="46.32996368408203" y="0" font-family="Virgil, Segoe UI Emoji" font-size="20px" fill="#1971c2" text-anchor="middle" style="white-space: pre;" direction="ltr" dominant-baseline="text-before-edge">Internet </text><text x="46.32996368408203" y="25" font-family="Virgil, Segoe UI Emoji" font-size="20px" fill="#1971c2" text-anchor="middle" style="white-space: pre;" direction="ltr" dominant-baseline="text-before-edge">Gateway</text></g><g stroke-linecap="round"><g transform="translate(765.544580683526 206.7965260135466) rotate(0 -61.64533721676298 21.781424493226694)"><path d="M0.98 1.15 C-2.7 6.92, -0.45 27.89, -21.05 34.91 C-41.66 41.94, -105.75 41.79, -122.64 43.31 M0.04 0.71 C-3.8 6.64, -0.95 29.03, -21.46 36.32 C-41.98 43.62, -106.36 42.99, -123.06 44.49" stroke="#1971c2" stroke-width="1" fill="none"></path></g><g transform="translate(765.544580683526 206.7965260135466) rotate(0 -61.64533721676298 21.781424493226694)"><path d="M-99.94 34.98 C-106.91 40.54, -118.16 43.59, -123.06 44.49 M-99.94 34.98 C-105.49 36.87, -113.04 40.14, -123.06 44.49" stroke="#1971c2" stroke-width="1" fill="none"></path></g><g transform="translate(765.544580683526 206.7965260135466) rotate(0 -61.64533721676298 21.781424493226694)"><path d="M-99.24 52.07 C-106.52 51.05, -118.04 47.51, -123.06 44.49 M-99.24 52.07 C-105.11 49.19, -112.86 47.7, -123.06 44.49" stroke="#1971c2" stroke-width="1" fill="none"></path></g></g><mask></mask><g stroke-linecap="round" transform="translate(686.236328125 301.0390625) rotate(0 74.62890625 60)"><path d="M109.99 6.3 C119.7 9.53, 128.57 17.44, 135.06 24.75 C141.55 32.07, 146.97 41.77, 148.93 50.18 C150.88 58.6, 149.82 66.95, 146.81 75.24 C143.8 83.53, 138.01 93.16, 130.87 99.92 C123.73 106.69, 113.97 112.44, 103.97 115.83 C93.97 119.21, 81.71 120.88, 70.88 120.23 C60.06 119.58, 48.34 116.2, 39.02 111.93 C29.71 107.65, 21.32 101.29, 15.02 94.57 C8.72 87.86, 3.3 79.92, 1.23 71.62 C-0.85 63.33, -0.2 53.35, 2.59 44.81 C5.37 36.27, 10.72 26.98, 17.92 20.39 C25.12 13.8, 35.95 8.78, 45.78 5.25 C55.62 1.72, 64.61 -2.09, 76.92 -0.78 C89.22 0.53, 111.14 9.67, 119.63 13.1 C128.11 16.53, 128.58 19.17, 127.85 19.79 M45.45 4.6 C54.33 0.64, 67.52 0.22, 78.33 0.65 C89.15 1.09, 101.09 3.23, 110.35 7.19 C119.6 11.15, 127.7 17.57, 133.88 24.4 C140.05 31.22, 145.34 39.48, 147.4 48.14 C149.47 56.8, 149 68.08, 146.27 76.36 C143.53 84.63, 138.21 91.56, 130.99 97.77 C123.78 103.99, 112.86 109.87, 102.98 113.63 C93.1 117.39, 82.13 120.47, 71.7 120.33 C61.28 120.19, 49.77 116.79, 40.44 112.81 C31.12 108.82, 22.16 103.32, 15.76 96.41 C9.36 89.5, 4.28 80.13, 2.04 71.35 C-0.2 62.57, -0.59 52.08, 2.3 43.75 C5.2 35.43, 12.14 27.62, 19.43 21.4 C26.71 15.17, 41.47 8.96, 46.01 6.4 C50.56 3.83, 46.45 5.22, 46.71 6" stroke="#1971c2" stroke-width="1" fill="none"></path></g><g transform="translate(717.9646543278554 323.61265562880715) rotate(0 43.129974365234375 37.5)"><text x="43.129974365234375" y="0" font-family="Virgil, Segoe UI Emoji" font-size="20px" fill="#1971c2" text-anchor="middle" style="white-space: pre;" direction="ltr" dominant-baseline="text-before-edge">Virtual </text><text x="43.129974365234375" y="25" font-family="Virgil, Segoe UI Emoji" font-size="20px" fill="#1971c2" text-anchor="middle" style="white-space: pre;" direction="ltr" dominant-baseline="text-before-edge">Private </text><text x="43.129974365234375" y="50" font-family="Virgil, Segoe UI Emoji" font-size="20px" fill="#1971c2" text-anchor="middle" style="white-space: pre;" direction="ltr" dominant-baseline="text-before-edge">Gateway</text></g><g stroke-linecap="round"><g transform="translate(814.1813340408532 316.28182056788944) rotate(0 -101.60238577042662 -17.19559778394472)"><path d="M-0.18 -0.59 C-10.85 -6.42, -29.82 -29.91, -63.74 -34.86 C-97.66 -39.8, -180.37 -30.84, -203.7 -30.24 M-1.74 1.72 C-12.05 -3.97, -27.59 -28.47, -61.42 -33.56 C-95.26 -38.66, -181.01 -29.35, -204.73 -28.86" stroke="#1971c2" stroke-width="1" fill="none"></path></g><g transform="translate(814.1813340408532 316.28182056788944) rotate(0 -101.60238577042662 -17.19559778394472)"><path d="M-181.82 -38.86 C-190.21 -36.93, -197.44 -33.24, -204.73 -28.86 M-181.82 -38.86 C-188.52 -36.83, -196.86 -32.2, -204.73 -28.86" stroke="#1971c2" stroke-width="1" fill="none"></path></g><g transform="translate(814.1813340408532 316.28182056788944) rotate(0 -101.60238577042662 -17.19559778394472)"><path d="M-180.75 -21.79 C-189.51 -25.4, -197.08 -27.24, -204.73 -28.86 M-180.75 -21.79 C-187.71 -25.08, -196.39 -25.74, -204.73 -28.86" stroke="#1971c2" stroke-width="1" fill="none"></path></g></g><mask></mask></svg>